Coordinates
version=1
nRows=9
nColumns=40
inDegrees=yes

Units are S.I. units (second, meters, Newtons, ...)
If the header above contains a line with 'inDegrees', this indicates whether rotational values are in degrees (yes) or radians (no).

endheader
time	pelvis_tilt	pelvis_list	pelvis_rotation	pelvis_tx	pelvis_ty	pelvis_tz	hip_flexion_r	hip_adduction_r	hip_rotation_r	knee_angle_r	knee_angle_r_beta	ankle_angle_r	subtalar_angle_r	mtp_angle_r	hip_flexion_l	hip_adduction_l	hip_rotation_l	knee_angle_l	knee_angle_l_beta	ankle_angle_l	subtalar_angle_l	mtp_angle_l	lumbar_extension	lumbar_bending	lumbar_rotation	arm_flex_r	arm_add_r	arm_rot_r	elbow_flex_r	pro_sup_r	wrist_flex_r	wrist_dev_r	arm_flex_l	arm_add_l	arm_rot_l	elbow_flex_l	pro_sup_l	wrist_flex_l	wrist_dev_l
     13.09999999999999964473	     11.81864672158130424862	     -4.61000378752760298084	   -179.03460387087864091882	      0.30063511129668807342	      0.66069149546502325965	     -0.96444232732879375813	     80.32209312074935780856	    -48.98175908314541970867	      1.45897048512068838733	     75.70467243238836374530	      1.32129579308896127898	      4.74897562428546038404	      0.00000000000000000000	      0.00000000000000000000	     68.33473100519130127850	    -43.19066653277643297315	     -8.98188053304473577043	     73.74139049053370342790	      1.28703005905864964475	      8.10310282112374835606	      0.00000000000000000000	      0.00000000000000000000	    -58.13367023567403180095	     -1.54264686296626774009	     -4.14634701677697581346	     51.27370646925977837327	     -9.82362470559606393294	     40.68423188307462368130	      6.79204271007560755891	     37.67126133882335636827	      0.00000000000000000000	      0.00000000000000000000	     58.09376411054559241620	    -16.09763829801631374039	     42.05208028080151194672	     19.38021072629082652838	     79.38625968331655258226	      0.00000000000000000000	      0.00000000000000000000
     13.10500000000000042633	     12.20598520088127436622	     -4.49371093562330692350	   -178.87980434553799113928	      0.30081306849197275710	      0.66013143748267910649	     -0.96412342811765672224	     80.56861020477649049099	    -49.01822679574478058839	      1.31286056202858758546	     75.68562770757658597631	      1.32096339993585942807	      4.89963566818211404552	      0.00000000000000000000	      0.00000000000000000000	     68.96433667021686630960	    -42.98514809235411604504	     -8.56268946719821855140	     73.73224127152151652353	      1.28687037506290091748	      8.16577062752653048960	      0.00000000000000000000	      0.00000000000000000000	    -57.79903557557816640156	     -1.38839047230607759431	     -4.09986233657691911958	     51.04863731172800811464	    -10.19115480184261635088	     40.51795409871331798968	      8.16460697818240177526	     37.74802989063489633281	      0.00000000000000000000	      0.00000000000000000000	     57.83033374794246839201	    -16.26805082996169815601	     41.83601645684674963377	     20.03847073484083551875	     78.13732683850884086496	      0.00000000000000000000	      0.00000000000000000000
     13.10999999999999943157	     11.77216711412923011437	     -4.66929685388516091393	   -179.07086603301098648444	      0.30022665172250861954	      0.66152452037421349829	     -0.96454634879193423824	     80.17967804317247271229	    -48.97665282177865719859	      1.42260087565905557483	     75.59774826633437783130	      1.31942961434136996068	      4.77501860185536841641	      0.00000000000000000000	      0.00000000000000000000	     68.03262257754921904507	    -43.21285098465342855434	     -9.25481922235098686258	     73.59657448692018988368	      1.28450254298601374003	      8.07587120494818755390	      0.00000000000000000000	      0.00000000000000000000	    -58.33260927761646286172	     -1.63258606179151399829	     -4.10744643724442326516	     51.38149241939130007495	     -9.84984705749218392157	     40.15352823311186369892	      6.87807515643375211312	     38.02002205546602198183	      0.00000000000000000000	      0.00000000000000000000	     58.27139318242048204866	    -16.38962948976652356237	     43.14162456733575368162	     19.77235620060659471164	     81.22103958692136416175	      0.00000000000000000000	      0.00000000000000000000
     13.11500000000000021316	     11.76315858352192833536	     -4.66499449751844075251	   -179.06135971487850611084	      0.30006866223912187497	      0.66188116152429865569	     -0.96454614981592112777	     80.08269493847430453570	    -48.98666515914536745413	      1.35009594948936118008	     75.54776408925926034499	      1.31855722587750934238	      4.76593728594660159814	      0.00000000000000000000	      0.00000000000000000000	     67.95591072265271748165	    -43.19432507181269187413	     -9.29283618040183689857	     73.53653415864727094231	      1.28345464157367317171	      8.07728587971076805729	      0.00000000000000000000	      0.00000000000000000000	    -58.40648608501656013914	     -1.62268083292639464510	     -4.12877412464895243716	     51.36633869133134311369	     -9.90439912952361289911	     40.46051926096745177119	      6.93221206845665971485	     37.96015097010567984626	      0.00000000000000000000	      0.00000000000000000000	     58.25324572915093312986	    -16.34760454846914967675	     42.88358648166870068508	     19.74493151343024166522	     80.29095560830845101918	      0.00000000000000000000	      0.00000000000000000000
     13.11999999999999921840	     12.16846594569027750765	     -4.55711423374194612990	   -178.93167178680030815485	      0.30025410108553085564	      0.66122780927458013611	     -0.96420249683312886368	     80.40660731074311229349	    -49.00267523462824215130	      1.25657595984361325492	     75.55444742358449161657	      1.31867387206649633313	      4.85714300530958809077	      0.00000000000000000000	      0.00000000000000000000	     68.62544178278572815088	    -43.03303103130620144157	     -8.89519983432646021981	     73.58969441306480518961	      1.28438246304445691237	      8.12223874562551806378	      0.00000000000000000000	      0.00000000000000000000	    -58.02109425762601091492	     -1.47628408427979018747	     -4.06121898295097949472	     51.11420917045280987168	    -10.23312320727362845219	     40.34860935250019053910	      8.20316460386368007107	     38.02159136659172844475	      0.00000000000000000000	      0.00000000000000000000	     57.95750955623401523553	    -16.46733052594990098783	     42.61923663716998333939	     20.35627636926741601542	     78.89158604839222732608	      0.00000000000000000000	      0.00000000000000000000
     13.12500000000000000000	     12.50694727017784657619	     -4.46013269900835762627	   -178.81657530156567759150	      0.30048617124503534948	      0.66084412496205313658	     -0.96396744019742053311	     80.60633202561943733144	    -49.00059627324051803043	      1.13763994622966979620	     75.49536931509655346417	      1.31764276455753126527	      4.90963885421343526616	      0.00000000000000000000	      0.00000000000000000000	     69.14873548582589535272	    -42.88737650103739440510	     -8.60147676523357773704	     73.55616053228858675084	      1.28379718641394058309	      8.11939742331963110189	      0.00000000000000000000	      0.00000000000000000000	    -57.75387768865740412139	     -1.35762892953033098564	     -4.02089358134856134086	     50.97009851769545463185	    -10.51444727197082329440	     40.29331392975277026380	      9.04046296692484396829	     38.05522261046158405406	      0.00000000000000000000	      0.00000000000000000000	     57.83199766308963063466	    -16.59075133612165231511	     42.41229126701825435930	     20.80654195658194538510	     77.79825589996963230988	      0.00000000000000000000	      0.00000000000000000000
     13.13000000000000078160	     11.89845988072007720859	     -4.75366377687004781905	   -179.07210130422672023087	      0.29981243709486804505	      0.66268115919253101076	     -0.96451447147659330472	     80.16427850153395695543	    -48.95199257331459108400	      1.41151160464448133247	     75.38941356005335592272	      1.31579348777059079723	      4.69252601801376112434	      0.00000000000000000000	      0.00000000000000000000	     67.80831880270686440326	    -43.12159279605268125124	     -9.56543884369734165318	     73.34942128541550232512	      1.28018890586291189670	      8.05646930776380543193	      0.00000000000000000000	      0.00000000000000000000	    -58.45549545204530517140	     -1.70051107094911557738	     -4.16320266886834211562	     51.49286542333994987075	     -9.86434355255385320049	     40.07413259148461293080	      6.90906951405315439274	     38.01526427788014217413	      0.00000000000000000000	      0.00000000000000000000	     58.39299260648508038685	    -16.39222563843049940147	     43.00308884363655437255	     19.81966695346542906009	     81.07499582912298308202	      0.00000000000000000000	      0.00000000000000000000
     13.13499999999999978684	     11.95107240780367874322	     -4.67129518112935038232	   -179.04996353646703255436	      0.29971950897833893324	      0.66297827951984689143	     -0.96442428003253155566	     80.00236021066899638754	    -48.94641651205911614397	      1.18492203120885375434	     75.29344681691163998494	      1.31411855213035222434	      4.66132640094561967459	      0.00000000000000000000	      0.00000000000000000000	     67.90825648657761348659	    -43.12049054155099270247	     -9.46735211773548890335	     73.31164645864885187621	      1.27952961076146332076	      7.99048627789820908873	      0.00000000000000000000	      0.00000000000000000000	    -58.45706769232651112134	     -1.61911124009206175423	     -4.07332660381432187791	     51.47823516170876700926	     -9.95372224539572769686	     40.35305974751945257140	      6.94334172242076697046	     37.95415422100104763103	      0.00000000000000000000	      0.00000000000000000000	     58.39839806410463296515	    -16.27155544589517077725	     42.86817842953560386832	     19.79510778885196486954	     80.20925255015966115479	      0.00000000000000000000	      0.00000000000000000000
     13.14000000000000056843	     11.95707063371135348007	     -4.66516740256607320703	   -179.03660016844091273924	      0.29963263129675515861	      0.66335124055236116547	     -0.96437641774606663869	     79.93379564753998067772	    -48.94623887427949426865	      1.14283623898523356566	     75.24334406115664819481	      1.31324409407810516193	      4.63664532859883404825	      0.00000000000000000000	      0.00000000000000000000	     67.84029861048563248005	    -43.07979911937513861631	     -9.49060785437479914606	     73.23983759657804171184	      1.27827630968621730467	      8.01125653913291913000	      0.00000000000000000000	      0.00000000000000000000	    -58.51216509973425417002	     -1.60190858635327026960	     -4.10314817036008605555	     51.49242244106692112382	     -9.96263649363183567687	     40.52035839355573898501	      6.93391396010618255019	     37.88607579866538799251	      0.00000000000000000000	      0.00000000000000000000	     58.43175797572889962339	    -16.24324897395345601581	     42.81547616474348672000	     19.68498390139482623340	     79.63890407184818798214	      0.00000000000000000000	      0.00000000000000000000
